<svg xmlns="http://www.w3.org/2000/svg" viewBox="0 0 329.09 77.92"><defs><style>.cls-1{fill:#333;}</style></defs><title>OTTORI</title><g id="レイヤー_2" data-name="レイヤー 2"><g id="レイヤー_1-2" data-name="レイヤー 1"><path class="cls-1" d="M155.57,9.4a10.09,10.09,0,0,1-4.32-.91,13.25,13.25,0,0,1-2.12-1.28l-.45-.3a6.45,6.45,0,0,0-1.12-.63,5.06,5.06,0,0,0-2-.35,4.84,4.84,0,0,0-2.21.43,10.43,10.43,0,0,0-1.4.87l-.48.32a11.35,11.35,0,0,1-2,1.11,10.21,10.21,0,0,1-3.94.74,10.16,10.16,0,0,1-4.37-.91A15.16,15.16,0,0,1,129,7.22l-.45-.31a6.45,6.45,0,0,0-1.12-.63,5,5,0,0,0-2-.35,4.92,4.92,0,0,0-2.22.43,11.14,11.14,0,0,0-1.41.87l-.46.32a12.21,12.21,0,0,1-2,1.12,10.36,10.36,0,0,1-3.94.73A10.11,10.11,0,0,1,111,8.49a14.06,14.06,0,0,1-2.12-1.27c-.16-.11-.31-.22-.46-.31a6.1,6.1,0,0,0-1.12-.63,5,5,0,0,0-2-.35,4.84,4.84,0,0,0-2.21.43,9.88,9.88,0,0,0-1.41.87l-.47.32a11.48,11.48,0,0,1-2,1.11,10.13,10.13,0,0,1-3.94.74,10.15,10.15,0,0,1-4.36-.91,14.59,14.59,0,0,1-2.12-1.27l-.45-.31a6.48,6.48,0,0,0-1.13-.63,5,5,0,0,0-2-.35h-.85V0h.85a10.07,10.07,0,0,1,4.35.91,14.75,14.75,0,0,1,2.13,1.27l.45.31a6.45,6.45,0,0,0,1.12.63,5.19,5.19,0,0,0,2,.35A5,5,0,0,0,97.37,3a10.69,10.69,0,0,0,1.42-.88l.46-.31a11.81,11.81,0,0,1,2-1.12A10.3,10.3,0,0,1,105.21,0a10.1,10.1,0,0,1,4.37.91,13.39,13.39,0,0,1,2.13,1.28l.45.3a6.1,6.1,0,0,0,1.12.63,5.19,5.19,0,0,0,2,.35A5,5,0,0,0,117.52,3a10,10,0,0,0,1.41-.88l.47-.31a11.81,11.81,0,0,1,2-1.12A10.3,10.3,0,0,1,125.36,0a10.16,10.16,0,0,1,4.37.91,14.06,14.06,0,0,1,2.12,1.27l.45.31a6.84,6.84,0,0,0,1.12.63,5.23,5.23,0,0,0,2,.35A5,5,0,0,0,137.67,3a12.43,12.43,0,0,0,1.41-.87l.47-.32a11.68,11.68,0,0,1,2-1.12A10.3,10.3,0,0,1,145.5,0a10.17,10.17,0,0,1,4.38.91A14.59,14.59,0,0,1,152,2.18l.45.31a6.45,6.45,0,0,0,1.12.63,5.25,5.25,0,0,0,2,.35A5,5,0,0,0,157.82,3a11.57,11.57,0,0,0,1.4-.87l.48-.32a11.44,11.44,0,0,1,2-1.12A10.25,10.25,0,0,1,165.65,0h.85l0,.85V5.93h-.85a4.86,4.86,0,0,0-2.22.43,10.26,10.26,0,0,0-1.4.86l-.48.33a12,12,0,0,1-2,1.11,10.21,10.21,0,0,1-3.94.74l-.05-.85Z"/><path class="cls-1" d="M162.05,1.52a10.23,10.23,0,0,0-1.88,1,15.05,15.05,0,0,1-2,1.26,5.85,5.85,0,0,1-2.57.51,5.84,5.84,0,0,1-2.35-.42A7.29,7.29,0,0,1,152,3.2a17,17,0,0,0-2.47-1.52,9,9,0,0,0-4-.83,9.37,9.37,0,0,0-3.63.67,10.23,10.23,0,0,0-1.88,1,15.05,15.05,0,0,1-2,1.26,5.85,5.85,0,0,1-2.57.51,5.84,5.84,0,0,1-2.35-.42,7.29,7.29,0,0,1-1.27-.7,17.37,17.37,0,0,0-2.46-1.52,9.08,9.08,0,0,0-4-.83,9.41,9.41,0,0,0-3.63.67,10.58,10.58,0,0,0-1.88,1,15,15,0,0,1-2,1.26,5.89,5.89,0,0,1-2.57.51A5.9,5.9,0,0,1,113,3.9a6.87,6.87,0,0,1-1.26-.7,17.55,17.55,0,0,0-2.47-1.52,9,9,0,0,0-4-.83,9.41,9.41,0,0,0-3.63.67,10.13,10.13,0,0,0-1.87,1,15.73,15.73,0,0,1-2,1.26,5.89,5.89,0,0,1-2.57.51A5.9,5.9,0,0,1,92.8,3.9a7.21,7.21,0,0,1-1.26-.7,17,17,0,0,0-2.47-1.52,9,9,0,0,0-4-.83V5.08a6.1,6.1,0,0,1,2.36.41,7.59,7.59,0,0,1,1.26.71,18.54,18.54,0,0,0,2.47,1.52,9.16,9.16,0,0,0,4,.83,9.41,9.41,0,0,0,3.63-.67,11.45,11.45,0,0,0,1.87-1,14.67,14.67,0,0,1,2-1.26,5.74,5.74,0,0,1,2.57-.51,6.1,6.1,0,0,1,2.36.41,8,8,0,0,1,1.26.71,17.91,17.91,0,0,0,2.47,1.52,9.16,9.16,0,0,0,4,.83,9.35,9.35,0,0,0,3.62-.67,11.58,11.58,0,0,0,1.88-1,14.67,14.67,0,0,1,2-1.26,5.74,5.74,0,0,1,2.57-.51,6,6,0,0,1,2.35.41A8.1,8.1,0,0,1,129,6.2a18.35,18.35,0,0,0,2.46,1.52,9.23,9.23,0,0,0,4,.83,9.37,9.37,0,0,0,3.63-.67,11.58,11.58,0,0,0,1.88-1,14.09,14.09,0,0,1,2-1.26,5.71,5.71,0,0,1,2.57-.51,6,6,0,0,1,2.35.41,8.1,8.1,0,0,1,1.27.71,18.35,18.35,0,0,0,2.46,1.52,9.23,9.23,0,0,0,4,.83,9.37,9.37,0,0,0,3.63-.67,11.58,11.58,0,0,0,1.88-1,14.09,14.09,0,0,1,2-1.26,5.71,5.71,0,0,1,2.57-.51V.85A9.37,9.37,0,0,0,162.05,1.52Z"/><path class="cls-1" d="M37.29,2.48q16.32,0,27.34,10.82A36.27,36.27,0,0,1,75.68,40.08a36.44,36.44,0,0,1-10.9,26.79,36.42,36.42,0,0,1-26.73,11A36.79,36.79,0,0,1,11.05,67,36,36,0,0,1,0,40.6,38.28,38.28,0,0,1,5,21.4,37,37,0,0,1,37.29,2.48Zm.33,7a29.56,29.56,0,0,0-15.1,4.19A29.86,29.86,0,0,0,11.4,24.87a31,31,0,0,0-4,15.69,29.29,29.29,0,0,0,8.93,21.6,29.24,29.24,0,0,0,21.42,8.77,30.6,30.6,0,0,0,15.46-4.09A29,29,0,0,0,64.31,55.72a31.13,31.13,0,0,0,4-15.64,30.36,30.36,0,0,0-4-15.46A29.83,29.83,0,0,0,53,13.58,30.37,30.37,0,0,0,37.62,9.46Z"/><path class="cls-1" d="M209.36,2.08Q225.68,2,236.7,12.9a36.27,36.27,0,0,1,11.05,26.78,36.41,36.41,0,0,1-10.91,26.79,36.38,36.38,0,0,1-26.72,11,36.79,36.79,0,0,1-27-10.88A36,36,0,0,1,172.07,40.2,38.28,38.28,0,0,1,177,21,37,37,0,0,1,209.36,2.08Zm.33,7a29.56,29.56,0,0,0-15.1,4.19,30,30,0,0,0-11.13,11.21,31.19,31.19,0,0,0-4,15.7,29.29,29.29,0,0,0,8.93,21.6,29.29,29.29,0,0,0,21.42,8.78,30.78,30.78,0,0,0,15.47-4.1,29.05,29.05,0,0,0,11.07-11.12,31.13,31.13,0,0,0,4-15.64,30.36,30.36,0,0,0-4-15.46,29.83,29.83,0,0,0-11.25-11A30.37,30.37,0,0,0,209.69,9.06Z"/><path class="cls-1" d="M262.46,3.76l14.31,0q12,0,16.21.94a18.49,18.49,0,0,1,10.42,6.26,17.88,17.88,0,0,1,4,11.84,19.15,19.15,0,0,1-2.73,10.32,17.27,17.27,0,0,1-7.87,6.75q-5.13,2.28-14.16,2.35l25.91,33.29-8.88,0L273.79,42.21h-4.06l.08,33.35-7.18,0Zm7.2,7,0,24.41,12.38.07c4.79,0,8.34-.48,10.63-1.39a11.08,11.08,0,0,0,5.37-4.38A12.17,12.17,0,0,0,300,22.77a11.69,11.69,0,0,0-2-6.57A11,11,0,0,0,292.89,12q-3.18-1.26-10.56-1.24Z"/><path class="cls-1" d="M321.74,3.62h7.18l.17,71.82-7.18,0Z"/><rect class="cls-1" x="141.56" y="5.11" width="7.32" height="70.74" transform="translate(-0.09 0.31) rotate(-0.12)"/><rect class="cls-1" x="98.98" y="5.22" width="7.32" height="70.74" transform="translate(-0.09 0.22) rotate(-0.12)"/></g></g></svg>